<mxfile host="app.diagrams.net" agent="Mozilla/5.0 (Windows NT 10.0; Win64; x64) AppleWebKit/537.36 (KHTML, like Gecko) Chrome/131.0.0.0 Safari/537.36" version="24.9.3">
  <diagram name="Сторінка-1" id="_pXUduieYIxqlvsw1l4D">
    <mxGraphModel grid="1" page="1" gridSize="10" guides="1" tooltips="1" connect="1" arrows="1" fold="1" pageScale="1" pageWidth="827" pageHeight="1169" math="0" shadow="0">
      <root>
        <mxCell id="0" />
        <mxCell id="1" parent="0" />
        <mxCell id="tUFMDW42ARztlzS6usHb-2" style="edgeStyle=orthogonalEdgeStyle;rounded=0;orthogonalLoop=1;jettySize=auto;html=1;" edge="1" parent="1" source="tUFMDW42ARztlzS6usHb-1" target="tUFMDW42ARztlzS6usHb-3">
          <mxGeometry relative="1" as="geometry">
            <mxPoint x="410" y="-590" as="targetPoint" />
          </mxGeometry>
        </mxCell>
        <mxCell id="tUFMDW42ARztlzS6usHb-1" value="Start" style="ellipse;whiteSpace=wrap;html=1;fillColor=#d5e8d4;strokeColor=#82b366;" vertex="1" parent="1">
          <mxGeometry x="350" y="-720" width="120" height="80" as="geometry" />
        </mxCell>
        <mxCell id="tUFMDW42ARztlzS6usHb-4" style="edgeStyle=orthogonalEdgeStyle;rounded=0;orthogonalLoop=1;jettySize=auto;html=1;" edge="1" parent="1" source="tUFMDW42ARztlzS6usHb-3" target="tUFMDW42ARztlzS6usHb-6">
          <mxGeometry relative="1" as="geometry">
            <mxPoint x="415" y="-470" as="targetPoint" />
          </mxGeometry>
        </mxCell>
        <mxCell id="tUFMDW42ARztlzS6usHb-3" value="int n; cin &gt;&gt; n; vector&lt;int&gt; arr(n);" style="rounded=0;whiteSpace=wrap;html=1;" vertex="1" parent="1">
          <mxGeometry x="345" y="-610" width="130" height="80" as="geometry" />
        </mxCell>
        <mxCell id="tUFMDW42ARztlzS6usHb-7" style="edgeStyle=orthogonalEdgeStyle;rounded=0;orthogonalLoop=1;jettySize=auto;html=1;" edge="1" parent="1" source="tUFMDW42ARztlzS6usHb-6" target="tUFMDW42ARztlzS6usHb-8">
          <mxGeometry relative="1" as="geometry">
            <mxPoint x="410" y="-360" as="targetPoint" />
          </mxGeometry>
        </mxCell>
        <mxCell id="tUFMDW42ARztlzS6usHb-6" value="for (int i = 0; i &lt; n; ++i)" style="rhombus;whiteSpace=wrap;html=1;" vertex="1" parent="1">
          <mxGeometry x="345" y="-490" width="130" height="90" as="geometry" />
        </mxCell>
        <mxCell id="tUFMDW42ARztlzS6usHb-9" style="edgeStyle=orthogonalEdgeStyle;rounded=0;orthogonalLoop=1;jettySize=auto;html=1;" edge="1" parent="1" source="tUFMDW42ARztlzS6usHb-8" target="tUFMDW42ARztlzS6usHb-6">
          <mxGeometry relative="1" as="geometry">
            <mxPoint x="560" y="-450" as="targetPoint" />
            <Array as="points">
              <mxPoint x="561" y="-340" />
              <mxPoint x="561" y="-445" />
            </Array>
          </mxGeometry>
        </mxCell>
        <mxCell id="tUFMDW42ARztlzS6usHb-10" style="edgeStyle=orthogonalEdgeStyle;rounded=0;orthogonalLoop=1;jettySize=auto;html=1;" edge="1" parent="1" source="tUFMDW42ARztlzS6usHb-8" target="tUFMDW42ARztlzS6usHb-11">
          <mxGeometry relative="1" as="geometry">
            <mxPoint x="410" y="-230" as="targetPoint" />
          </mxGeometry>
        </mxCell>
        <mxCell id="tUFMDW42ARztlzS6usHb-8" value="cin &gt;&gt; arr[i];" style="shape=parallelogram;perimeter=parallelogramPerimeter;whiteSpace=wrap;html=1;fixedSize=1;" vertex="1" parent="1">
          <mxGeometry x="350" y="-370" width="120" height="60" as="geometry" />
        </mxCell>
        <mxCell id="tUFMDW42ARztlzS6usHb-12" style="edgeStyle=orthogonalEdgeStyle;rounded=0;orthogonalLoop=1;jettySize=auto;html=1;" edge="1" parent="1" source="tUFMDW42ARztlzS6usHb-11" target="tUFMDW42ARztlzS6usHb-13">
          <mxGeometry relative="1" as="geometry">
            <mxPoint x="410" y="-120" as="targetPoint" />
          </mxGeometry>
        </mxCell>
        <UserObject label="cout &lt;&lt; *max_element(arr.begin(), arr.end()) &lt;&lt; endl;" id="tUFMDW42ARztlzS6usHb-11">
          <mxCell style="shape=parallelogram;perimeter=parallelogramPerimeter;whiteSpace=wrap;html=1;fixedSize=1;" vertex="1" parent="1">
            <mxGeometry x="310" y="-270" width="200" height="90" as="geometry" />
          </mxCell>
        </UserObject>
        <mxCell id="tUFMDW42ARztlzS6usHb-13" value="End" style="ellipse;whiteSpace=wrap;html=1;fillColor=#f8cecc;strokeColor=#b85450;" vertex="1" parent="1">
          <mxGeometry x="350" y="-160" width="120" height="80" as="geometry" />
        </mxCell>
      </root>
    </mxGraphModel>
  </diagram>
</mxfile>
